HIERARCHY
ROOT hip
{
  OFFSET 0 0 0
  CHANNELS 6 Xposition Yposition Zposition Zrotation Yrotation Xrotation
  JOINT abdomen
  {
    OFFSET 0 20.6881 -0.73152
    CHANNELS 3 Zrotation Xrotation Yrotation
    JOINT chest
    {
      OFFSET 0 11.7043 -0.48768
      CHANNELS 3 Zrotation Xrotation Yrotation
      JOINT neck
      {
        OFFSET 0 22.1894 -2.19456
        CHANNELS 3 Zrotation Xrotation Yrotation
        JOINT head
        {
          OFFSET -0.24384 7.07133 1.2192
          CHANNELS 3 Zrotation Xrotation Yrotation
          JOINT leftEye
          {
            OFFSET 4.14528 8.04674 8.04672
            CHANNELS 3 Zrotation Xrotation Yrotation
            End Site
            {
              OFFSET 1 0 0
            }
          }
          JOINT rightEye
          {
            OFFSET -3.6576 8.04674 8.04672
            CHANNELS 3 Zrotation Xrotation Yrotation
            End Site
            {
              OFFSET 1 0 0
            }
          }
        }
      }
      JOINT rCollar
      {
        OFFSET -2.68224 19.2634 -4.8768
        CHANNELS 3 Zrotation Xrotation Yrotation
        JOINT rShldr
        {
          OFFSET -8.77824 -1.95073 1.46304
          CHANNELS 3 Zrotation Xrotation Yrotation
          JOINT rForeArm
          {
            OFFSET -28.1742 -1.7115 0.48768
            CHANNELS 3 Zrotation Xrotation Yrotation
            JOINT rHand
            {
              OFFSET -22.5879 0.773209 7.07136
              CHANNELS 3 Zrotation Xrotation Yrotation
              JOINT rThumb1
              {
                OFFSET -1.2192 -0.487915 3.41376
                CHANNELS 3 Zrotation Xrotation Yrotation
                JOINT rThumb2
                {
                  OFFSET -3.37035 -0.52449 3.41376
                  CHANNELS 3 Zrotation Xrotation Yrotation
                  End Site
                  {
                    OFFSET -1.78271 -1.18214 1.43049
                  }
                }
              }
              JOINT rIndex1
              {
                OFFSET -7.75947 0.938293 5.60832
                CHANNELS 3 Zrotation Xrotation Yrotation
                JOINT rIndex2
                {
                  OFFSET -2.54057 -0.884171 1.56538
                  CHANNELS 3 Zrotation Xrotation Yrotation
                  End Site
                  {
                    OFFSET -1.62519 -0.234802 1.16502
                  }
                }
              }
              JOINT rMid1
              {
                OFFSET -8.24714 1.18213 3.41376
                CHANNELS 3 Zrotation Xrotation Yrotation
                JOINT rMid2
                {
                  OFFSET -3.10165 -0.590103 1.0647
                  CHANNELS 3 Zrotation Xrotation Yrotation
                  End Site
                  {
                    OFFSET -2.48547 -0.328903 0.83742
                  }
                }
              }
              JOINT rRing1
              {
                OFFSET -8.82822 0.546677 1.51678
                CHANNELS 3 Zrotation Xrotation Yrotation
                JOINT rRing2
                {
                  OFFSET -2.60934 -0.819778 -0.0198488
                  CHANNELS 3 Zrotation Xrotation Yrotation
                  End Site
                  {
                    OFFSET -2.33842 -0.294052 0.168128
                  }
                }
              }
              JOINT rPinky1
              {
                OFFSET -8.27202 -0.0477905 -0.4584
                CHANNELS 3 Zrotation Xrotation Yrotation
                JOINT rPinky2
                {
                  OFFSET -1.82734 -0.647385 -0.700984
                  CHANNELS 3 Zrotation Xrotation Yrotation
                  End Site
                  {
                    OFFSET -1.69225 -0.51767 -0.607171
                  }
                }
              }
            }
          }
        }
      }
      JOINT lCollar
      {
        OFFSET 2.68224 19.2634 -4.8768
        CHANNELS 3 Zrotation Xrotation Yrotation
        JOINT lShldr
        {
          OFFSET 8.77824 -1.95073 1.46304
          CHANNELS 3 Zrotation Xrotation Yrotation
          JOINT lForeArm
          {
            OFFSET 28.1742 -1.7115 0.48768
            CHANNELS 3 Zrotation Xrotation Yrotation
            JOINT lHand
            {
              OFFSET 22.5879 0.773209 7.07136
              CHANNELS 3 Zrotation Xrotation Yrotation
              JOINT lThumb1
              {
                OFFSET 1.2192 -0.487915 3.41376
                CHANNELS 3 Zrotation Xrotation Yrotation
                JOINT lThumb2
                {
                  OFFSET 3.37035 -0.52449 3.41376
                  CHANNELS 3 Zrotation Xrotation Yrotation
                  End Site
                  {
                    OFFSET 1.78271 -1.18214 1.43049
                  }
                }
              }
              JOINT lIndex1
              {
                OFFSET 7.75947 0.938293 5.60832
                CHANNELS 3 Zrotation Xrotation Yrotation
                JOINT lIndex2
                {
                  OFFSET 2.54057 -0.884171 1.56538
                  CHANNELS 3 Zrotation Xrotation Yrotation
                  End Site
                  {
                    OFFSET 1.62519 -0.234802 1.16502
                  }
                }
              }
              JOINT lMid1
              {
                OFFSET 8.24714 1.18213 3.41376
                CHANNELS 3 Zrotation Xrotation Yrotation
                JOINT lMid2
                {
                  OFFSET 3.10165 -0.590103 1.0647
                  CHANNELS 3 Zrotation Xrotation Yrotation
                  End Site
                  {
                    OFFSET 2.48547 -0.328903 0.83742
                  }
                }
              }
              JOINT lRing1
              {
                OFFSET 8.82822 0.546677 1.51678
                CHANNELS 3 Zrotation Xrotation Yrotation
                JOINT lRing2
                {
                  OFFSET 2.60934 -0.819778 -0.0198488
                  CHANNELS 3 Zrotation Xrotation Yrotation
                  End Site
                  {
                    OFFSET 2.33842 -0.294052 0.168128
                  }
                }
              }
              JOINT lPinky1
              {
                OFFSET 8.27202 -0.0477905 -0.4584
                CHANNELS 3 Zrotation Xrotation Yrotation
                JOINT lPinky2
                {
                  OFFSET 1.82734 -0.647385 -0.700984
                  CHANNELS 3 Zrotation Xrotation Yrotation
                  End Site
                  {
                    OFFSET 1.69225 -0.51767 -0.607171
                  }
                }
              }
            }
          }
        }
      }
    }
  }
  JOINT rButtock
  {
    OFFSET -8.77824 4.35084 1.2192
    CHANNELS 3 Zrotation Xrotation Yrotation
    JOINT rThigh
    {
      OFFSET 0 -1.70687 -2.19456
      CHANNELS 3 Zrotation Xrotation Yrotation
      JOINT rShin
      {
        OFFSET 0 -36.8199 0.73152
        CHANNELS 3 Zrotation Xrotation Yrotation
        JOINT rFoot
        {
          OFFSET 0.73152 -45.1104 -5.12064
          CHANNELS 3 Zrotation Xrotation Yrotation
          End Site
          {
            OFFSET -1.1221 -3.69964 12.103
          }
        }
      }
    }
  }
  JOINT lButtock
  {
    OFFSET 8.77824 4.35084 1.2192
    CHANNELS 3 Zrotation Xrotation Yrotation
    JOINT lThigh
    {
      OFFSET 0 -1.70687 -2.19456
      CHANNELS 3 Zrotation Xrotation Yrotation
      JOINT lShin
      {
        OFFSET 0 -36.8199 0.73152
        CHANNELS 3 Zrotation Xrotation Yrotation
        JOINT lFoot
        {
          OFFSET -0.73152 -45.1104 -5.12064
          CHANNELS 3 Zrotation Xrotation Yrotation
          End Site
          {
            OFFSET 1.1221 -3.69964 12.103
          }
        }
      }
    }
  }
}
MOTION
Frames:	4
Frame Time:	0.00833333
18.7056 80.6228 103.759 13.2102 -24.1705 -3.2534 11.1927 36.9228 -8.29397 9.23829 -9.87556 -0.508943 1.26292 4.05147 3.58868 -11.9467 -23.7485 4.46765 -0.0 0.0 0.0 -0.0 0.0 0.0 6.17017e-13 4.62762e-13 -6.16978e-13 59.9444 -25.0367 -19.7873 -27.3857 -42.8862 89.2695 -2.66675 -41.2452 -7.07856 -1.69393e-09 -3.3822e-11 -2.89931e-09 -2.83243e-09 -6.45144e-11 -5.04228e-09 -1.69393e-09 -3.38204e-11 -2.89932e-09 7.73091 5.47488 0.417314 -1.69393e-09 -3.38222e-11 -2.89931e-09 2.90554 0.965183 0.102902 -1.69393e-09 -3.38219e-11 -2.89931e-09 10.2786 0.731801 0.0259123 -1.69394e-09 -3.38232e-11 -2.8993e-09 2.22167 -0.733487 -0.20892 6.1693e-13 4.6278e-13 -6.17177e-13 -88.9559 18.6845 23.2993 18.3364 -11.0531 -34.7795 0.233424 -13.6303 1.95297 -3.36524e-09 -9.11417e-10 -2.12042e-09 -5.77797e-09 -1.57117e-09 -3.70641e-09 -3.36525e-09 -9.11415e-10 -2.12042e-09 -7.73091 5.47488 -0.417314 -3.36524e-09 -9.11419e-10 -2.12042e-09 -2.90554 0.965183 -0.102902 -3.36525e-09 -9.11417e-10 -2.12042e-09 -10.2786 0.731801 -0.0259123 -3.36523e-09 -9.11413e-10 -2.12043e-09 -2.22167 -0.733487 0.20892 -2.03217e-16 0.0 -3.88251e-19 -7.43992 -39.0795 -7.82833 -0.377418 40.3047 0.533592 -0.871714 1.98639 -3.46336 2.03217e-16 0.0 3.88251e-19 -18.4352 -5.8323 5.24903 0.337931 42.5305 -0.978224 2.77804 8.92151 -16.0099
18.6256 80.4238 102.547 12.6371 -23.7209 -2.8598 11.2694 36.5061 -8.38604 9.38915 -10.0218 -0.510096 1.01456 4.27375 3.52066 -11.8383 -23.755 4.40217 -0.0 0.0 0.0 -0.0 0.0 0.0 5.05286e-13 4.06175e-13 -4.07467e-13 59.3249 -25.0512 -20.109 -27.2447 -43.323 90.1153 -2.63009 -41.0243 -7.02316 -1.46504e-09 -4.12256e-11 -2.31446e-09 -2.45478e-09 -7.32602e-11 -4.02898e-09 -1.46504e-09 -4.12247e-11 -2.31447e-09 7.73091 5.47488 0.417314 -1.46504e-09 -4.12254e-11 -2.31446e-09 2.90554 0.965183 0.102902 -1.46504e-09 -4.12251e-11 -2.31446e-09 10.2786 0.731801 0.0259123 -1.46504e-09 -4.12258e-11 -2.31445e-09 2.22167 -0.733487 -0.20892 5.05194e-13 4.06209e-13 -4.07693e-13 -88.6346 18.4727 23.2886 18.3437 -11.0609 -34.7966 0.226723 -13.4378 1.92433 -2.68857e-09 -7.64868e-10 -1.34596e-09 -4.62093e-09 -1.32058e-09 -2.35784e-09 -2.68858e-09 -7.64866e-10 -1.34595e-09 -7.73091 5.47488 -0.417314 -2.68857e-09 -7.64869e-10 -1.34596e-09 -2.90554 0.965183 -0.102902 -2.68858e-09 -7.64867e-10 -1.34596e-09 -10.2786 0.731801 -0.0259123 -2.68857e-09 -7.64864e-10 -1.34597e-09 -2.22167 -0.733487 0.20892 -2.03217e-16 0.0 -3.88251e-19 -6.97683 -39.088 -8.05656 -0.364556 39.6598 0.51902 -0.856991 2.48657 -3.80191 2.03217e-16 0.0 3.88251e-19 -18.5931 -5.00899 4.71649 0.306985 41.2172 -0.946536 2.92762 9.43486 -15.8708
18.5108 80.3011 101.634 12.391 -23.3402 -2.9321 11.6772 36.1195 -8.44311 9.54502 -10.2528 -0.463902 0.671247 4.58044 3.39428 -11.6424 -23.7865 4.25357 -0.0 0.0 0.0 -0.0 0.0 0.0 3.01149e-13 2.62768e-13 -1.0188e-13 58.5681 -25.124 -20.4607 -27.0969 -43.7546 90.9545 -2.56912 -40.6486 -6.93008 -1.0685e-09 -4.06622e-11 -1.34313e-09 -1.79986e-09 -6.69706e-11 -2.34532e-09 -1.0685e-09 -4.06621e-11 -1.34314e-09 7.73091 5.47488 0.417314 -1.06851e-09 -4.06609e-11 -1.34313e-09 2.90554 0.965183 0.102902 -1.0685e-09 -4.06608e-11 -1.34313e-09 10.2786 0.731801 0.0259123 -1.06851e-09 -4.06601e-11 -1.34312e-09 2.22167 -0.733487 -0.20892 3.01042e-13 2.62819e-13 -1.02157e-13 -88.3655 18.3436 23.2793 18.3575 -11.0758 -34.829 0.220218 -13.2489 1.89626 -1.50055e-09 -4.91987e-10 -2.72545e-10 -2.58541e-09 -8.52496e-10 -4.86397e-10 -1.50055e-09 -4.91985e-10 -2.7253e-10 -7.73091 5.47488 -0.417314 -1.50055e-09 -4.91987e-10 -2.72544e-10 -2.90554 0.965183 -0.102902 -1.50056e-09 -4.91985e-10 -2.72545e-10 -10.2786 0.731801 -0.0259123 -1.50055e-09 -4.91983e-10 -2.72555e-10 -2.22167 -0.733487 0.20892 -2.03217e-16 0.0 -3.88251e-19 -6.06311 -39.0009 -8.03636 -0.349499 38.8541 0.499134 -0.835752 3.04503 -4.31656 2.03217e-16 0.0 3.88251e-19 -18.3855 -4.34624 4.09221 0.282499 40.0497 -0.915504 3.01274 9.93138 -15.3643
18.1999 80.1988 100.646 11.4333 -22.815 -2.8485 12.1635 35.7976 -8.47866 9.69131 -10.4719 -0.405134 0.373895 4.84362 3.26924 -11.4343 -23.8056 4.10204 -0.0 0.0 0.0 -0.0 0.0 0.0 1.01314e-13 1.16779e-13 1.887e-13 57.797 -25.2687 -20.6402 -26.944 -44.1698 91.7746 -2.50217 -40.2247 -6.82666 -6.592e-10 -4.40592e-11 -3.9958e-10 -1.12234e-09 -6.80785e-11 -7.09016e-10 -6.59198e-10 -4.40599e-11 -3.9959e-10 7.73091 5.47488 0.417314 -6.59202e-10 -4.40569e-11 -3.99577e-10 2.90554 0.965183 0.102902 -6.59197e-10 -4.40568e-11 -3.99576e-10 10.2786 0.731801 0.0259123 -6.59201e-10 -4.40548e-11 -3.99567e-10 2.22167 -0.733487 -0.20892 1.01185e-13 1.16842e-13 1.88374e-13 -88.0584 18.2506 23.1857 18.3896 -11.1112 -34.902 0.214987 -13.0943 1.87333 -3.66039e-10 -2.38165e-10 7.37866e-10 -6.41351e-10 -4.17162e-10 1.27535e-09 -3.66043e-10 -2.38162e-10 7.37884e-10 -7.73091 5.47488 -0.417314 -3.66037e-10 -2.38163e-10 7.37867e-10 -2.90554 0.965183 -0.102902 -3.66047e-10 -2.38161e-10 7.37866e-10 -10.2786 0.731801 -0.0259123 -3.66042e-10 -2.3816e-10 7.37856e-10 -2.22167 -0.733487 0.20892 -2.03217e-16 0.0 -3.88251e-19 -4.97702 -38.8679 -7.87405 -0.333515 37.9557 0.473997 -0.801262 3.64476 -4.89311 2.03217e-16 0.0 3.88251e-19 -18.0112 -3.82721 3.46008 0.264528 39.0869 -0.888157 2.98375 10.1199 -14.7291
